<mxfile host="www.draw.io" modified="2019-11-13T14:10:04.936Z" agent="Mozilla/5.0 (X11; Linux x86_64; rv:70.0) Gecko/20100101 Firefox/70.0" etag="ZLp21ya-eiOsknlUKtSG" version="12.2.4" type="github" pages="1">
  <diagram id="ZC2p44haQX9RM4H1msjC" name="Page-1">
    <mxGraphModel dx="1326" dy="788" grid="1" gridSize="10" guides="1" tooltips="1" connect="1" arrows="1" fold="1" page="1" pageScale="1" pageWidth="850" pageHeight="1100" math="0" shadow="0">
      <root>
        <mxCell id="0"/>
        <mxCell id="1" parent="0"/>
        <mxCell id="jCuDLZycr39TbZm7HN6y-1" value="&lt;div&gt;Purchasing &lt;br&gt;Agent&lt;/div&gt;" style="shape=umlActor;verticalLabelPosition=bottom;labelBackgroundColor=#ffffff;verticalAlign=top;html=1;outlineConnect=0;" parent="1" vertex="1">
          <mxGeometry x="100" y="60" width="40" height="60" as="geometry"/>
        </mxCell>
        <mxCell id="jCuDLZycr39TbZm7HN6y-2" value="" style="endArrow=none;dashed=1;html=1;" parent="1" source="jCuDLZycr39TbZm7HN6y-3" edge="1">
          <mxGeometry width="50" height="50" relative="1" as="geometry">
            <mxPoint x="120" y="600" as="sourcePoint"/>
            <mxPoint x="120" y="160" as="targetPoint"/>
          </mxGeometry>
        </mxCell>
        <mxCell id="jCuDLZycr39TbZm7HN6y-3" value="" style="rounded=0;whiteSpace=wrap;html=1;" parent="1" vertex="1">
          <mxGeometry x="115" y="170" width="10" height="260" as="geometry"/>
        </mxCell>
        <mxCell id="jCuDLZycr39TbZm7HN6y-4" value="" style="endArrow=none;dashed=1;html=1;" parent="1" target="jCuDLZycr39TbZm7HN6y-3" edge="1">
          <mxGeometry width="50" height="50" relative="1" as="geometry">
            <mxPoint x="120" y="600" as="sourcePoint"/>
            <mxPoint x="120" y="160" as="targetPoint"/>
          </mxGeometry>
        </mxCell>
        <mxCell id="jCuDLZycr39TbZm7HN6y-5" value="Kernel" style="html=1;" parent="1" vertex="1">
          <mxGeometry x="330" y="540" width="180" height="50" as="geometry"/>
        </mxCell>
        <mxCell id="jCuDLZycr39TbZm7HN6y-6" value="" style="endArrow=none;dashed=1;html=1;entryX=0.5;entryY=1;entryDx=0;entryDy=0;" parent="1" target="jCuDLZycr39TbZm7HN6y-5" edge="1">
          <mxGeometry width="50" height="50" relative="1" as="geometry">
            <mxPoint x="640" y="270" as="sourcePoint"/>
            <mxPoint x="314.5" y="145" as="targetPoint"/>
          </mxGeometry>
        </mxCell>
      </root>
    </mxGraphModel>
  </diagram>
</mxfile>
